<?xml version="1.0" encoding="UTF-8" standalone="no"?>
<!-- Generator: Adobe Illustrator 16.0.0, SVG Export Plug-In . SVG Version: 6.00 Build 0)  -->

<svg
   xmlns:dc="http://purl.org/dc/elements/1.1/"
   xmlns:cc="http://creativecommons.org/ns#"
   xmlns:rdf="http://www.w3.org/1999/02/22-rdf-syntax-ns#"
   xmlns:svg="http://www.w3.org/2000/svg"
   xmlns="http://www.w3.org/2000/svg"
   xmlns:sodipodi="http://sodipodi.sourceforge.net/DTD/sodipodi-0.dtd"
   xmlns:inkscape="http://www.inkscape.org/namespaces/inkscape"
   version="1.1"
   id="Capa_1"
   x="0px"
   y="0px"
   width="20.000002"
   height="20.000093"
   viewBox="0 0 20.000002 20.000094"
   xml:space="preserve"
   sodipodi:docname="25664.svg"
   inkscape:version="0.92.1 r15371"><metadata
     id="metadata41"><rdf:RDF><cc:Work
         rdf:about=""><dc:format>image/svg+xml</dc:format><dc:type
           rdf:resource="http://purl.org/dc/dcmitype/StillImage" /></cc:Work></rdf:RDF></metadata><defs
     id="defs39" /><sodipodi:namedview
     pagecolor="#ffffff"
     bordercolor="#666666"
     borderopacity="1"
     objecttolerance="10"
     gridtolerance="10"
     guidetolerance="10"
     inkscape:pageopacity="0"
     inkscape:pageshadow="2"
     inkscape:window-width="1366"
     inkscape:window-height="706"
     id="namedview37"
     showgrid="false"
     inkscape:zoom="12.177124"
     inkscape:cx="33.195161"
     inkscape:cy="6.7296048"
     inkscape:window-x="-8"
     inkscape:window-y="-8"
     inkscape:window-maximized="1"
     inkscape:current-layer="g4" /><g
     id="g4"
     transform="scale(0.04560671)"><path
       d="M 103.13503,33.048955 C 70.192976,53.730276 44.467713,81.171334 25.954471,115.37929 7.4424224,149.5932 -1.1704137,186.56825 0.11286791,226.33255 1.3960205,266.09285 12.375339,302.44663 33.054694,335.38975 c 20.67742,32.94518 48.118477,58.67044 82.328456,77.18462 34.21202,18.51511 71.19806,27.12759 110.95537,25.84454 39.7593,-1.28312 76.10698,-12.26525 109.05619,-32.9418 32.94209,-20.68032 58.66735,-48.12138 77.18253,-82.33139 18.51111,-34.21189 27.12469,-71.19497 25.84157,-110.95427 -1.28312,-39.7593 -12.26347,-76.11404 -32.94189,-109.05919 C 384.80156,70.189011 357.35354,44.464973 323.14662,25.952698 288.9358,7.4435514 251.95079,-1.1679626 212.19348,0.11509317 172.43215,1.3972785 136.07738,12.37663 103.13503,33.048955 Z m 96.98122,44.29488 133.7323,125.365645 c 3.72869,3.49555 5.68,7.7208 5.83963,12.66723 0.1596,4.94542 -1.51437,9.28268 -5.01079,13.0154 L 209.30675,362.12457 c -3.49645,3.73173 -7.71887,5.67793 -12.6633,5.8375 -4.94643,0.15963 -9.28855,-1.51018 -13.01933,-5.00866 l -30.04509,-28.16454 c -3.73292,-3.50241 -5.678,-7.72087 -5.83769,-12.66929 -0.1596,-4.94543 1.5103,-9.28455 5.00879,-13.01534 l 84.7772,-90.43158 -90.43158,-84.7772 c -3.73269,-3.49542 -5.67793,-7.71887 -5.83756,-12.6653 -0.15963,-4.94642 1.51025,-9.28654 5.00879,-13.01533 l 28.16647,-30.047157 c 3.49733,-3.735752 7.72281,-5.680058 12.66924,-5.83969 4.94449,-0.157569 9.28354,1.510341 13.01356,5.015852 z"
       id="path2"
       inkscape:connector-curvature="0"
       style="fill:#ffffff" /></g><g
     id="g6"
     transform="translate(0,-418.53391)" /><g
     id="g8"
     transform="translate(0,-418.53391)" /><g
     id="g10"
     transform="translate(0,-418.53391)" /><g
     id="g12"
     transform="translate(0,-418.53391)" /><g
     id="g14"
     transform="translate(0,-418.53391)" /><g
     id="g16"
     transform="translate(0,-418.53391)" /><g
     id="g18"
     transform="translate(0,-418.53391)" /><g
     id="g20"
     transform="translate(0,-418.53391)" /><g
     id="g22"
     transform="translate(0,-418.53391)" /><g
     id="g24"
     transform="translate(0,-418.53391)" /><g
     id="g26"
     transform="translate(0,-418.53391)" /><g
     id="g28"
     transform="translate(0,-418.53391)" /><g
     id="g30"
     transform="translate(0,-418.53391)" /><g
     id="g32"
     transform="translate(0,-418.53391)" /><g
     id="g34"
     transform="translate(0,-418.53391)" /></svg>