<?xml version="1.0" encoding="UTF-8" standalone="no"?>
<svg
   xmlns:dc="http://purl.org/dc/elements/1.1/"
   xmlns:cc="http://creativecommons.org/ns#"
   xmlns:rdf="http://www.w3.org/1999/02/22-rdf-syntax-ns#"
   xmlns:svg="http://www.w3.org/2000/svg"
   xmlns="http://www.w3.org/2000/svg"
   xmlns:sodipodi="http://sodipodi.sourceforge.net/DTD/sodipodi-0.dtd"
   xmlns:inkscape="http://www.inkscape.org/namespaces/inkscape"
   height="35"
   viewBox="0 0 35 35"
   width="35"
   version="1.1"
   id="svg4"
   sodipodi:docname="left.svg"
   inkscape:version="0.92.1 r15371">
  <metadata
     id="metadata10">
    <rdf:RDF>
      <cc:Work
         rdf:about="">
        <dc:format>image/svg+xml</dc:format>
        <dc:type
           rdf:resource="http://purl.org/dc/dcmitype/StillImage" />
      </cc:Work>
    </rdf:RDF>
  </metadata>
  <defs
     id="defs8" />
  <sodipodi:namedview
     pagecolor="#ffffff"
     bordercolor="#666666"
     borderopacity="1"
     objecttolerance="10"
     gridtolerance="10"
     guidetolerance="10"
     inkscape:pageopacity="0"
     inkscape:pageshadow="2"
     inkscape:window-width="1366"
     inkscape:window-height="706"
     id="namedview6"
     showgrid="false"
     inkscape:zoom="5.9599"
     inkscape:cx="36.142133"
     inkscape:cy="14.219142"
     inkscape:window-x="-8"
     inkscape:window-y="-8"
     inkscape:window-maximized="1"
     inkscape:current-layer="svg4" />
  <path
     d="m 14.058937,6.1965604 -2.276976,2.370503 q -0.42414,0.441525 -0.412216,1.033905 0.01192,0.5922796 0.453488,1.0164796 l 7.134802,6.853204 -6.853245,7.134763 q -0.424138,0.441625 -0.412217,1.033905 0.01192,0.59238 0.453488,1.016479 l 2.370523,2.276956 q 0.441566,0.4242 1.033896,0.412277 0.59233,-0.01192 1.016469,-0.453548 L 26.701716,18.340391 q 0.424148,-0.441626 0.412227,-1.033906 -0.01192,-0.59228 -0.453498,-1.016479 L 16.109302,6.1552895 Q 15.667736,5.7310899 15.075406,5.7430127 14.483076,5.7549354 14.058937,6.1965604 Z M 0.00354406,17.852178 Q -0.09229669,13.090743 2.1733014,9.0225248 4.4388895,4.9543071 8.4126529,2.5268457 12.386416,0.0993842 17.147822,0.00354406 q 4.761405,-0.09584015 8.829633,2.16974774 4.068228,2.2655879 6.495689,6.2393413 2.427471,3.9737529 2.523312,8.7351889 0.09584,4.761435 -2.169757,8.829653 -2.265589,4.068218 -6.239352,6.495679 -3.973763,2.427462 -8.735169,2.523302 -4.761405,0.09584 -8.829633,-2.169748 Q 4.9543173,30.56112 2.5268561,26.587367 0.09938481,22.613614 0.00354406,17.852178 Z"
     id="path2"
     inkscape:connector-curvature="0"
     style="stroke-width:0.02278646;fill:#ffffff" />
</svg>
