<?xml version="1.0" encoding="UTF-8" standalone="no"?>
<svg
   xmlns:dc="http://purl.org/dc/elements/1.1/"
   xmlns:cc="http://creativecommons.org/ns#"
   xmlns:rdf="http://www.w3.org/1999/02/22-rdf-syntax-ns#"
   xmlns:svg="http://www.w3.org/2000/svg"
   xmlns="http://www.w3.org/2000/svg"
   xmlns:xlink="http://www.w3.org/1999/xlink"
   xmlns:sodipodi="http://sodipodi.sourceforge.net/DTD/sodipodi-0.dtd"
   xmlns:inkscape="http://www.inkscape.org/namespaces/inkscape"
   viewBox="0 0 35 35.0014"
   width="35"
   height="35.0014"
   version="1.1"
   id="svg18"
   sodipodi:docname="icon-instagram.svg"
   inkscape:version="0.92.1 r15371">
  <metadata
     id="metadata22">
    <rdf:RDF>
      <cc:Work
         rdf:about="">
        <dc:format>image/svg+xml</dc:format>
        <dc:type
           rdf:resource="http://purl.org/dc/dcmitype/StillImage" />
        <dc:title></dc:title>
      </cc:Work>
    </rdf:RDF>
  </metadata>
  <sodipodi:namedview
     pagecolor="#ffffff"
     bordercolor="#666666"
     borderopacity="1"
     objecttolerance="10"
     gridtolerance="10"
     guidetolerance="10"
     inkscape:pageopacity="0"
     inkscape:pageshadow="2"
     inkscape:window-width="1366"
     inkscape:window-height="706"
     id="namedview20"
     showgrid="false"
     inkscape:zoom="12.0832"
     inkscape:cx="12.518872"
     inkscape:cy="18.105263"
     inkscape:window-x="-8"
     inkscape:window-y="-8"
     inkscape:window-maximized="1"
     inkscape:current-layer="svg18" />
  <defs
     id="defs12">
    <radialGradient
       id="0"
       cx="332.14001"
       cy="2511.8101"
       r="3263.54"
       gradientUnits="userSpaceOnUse"
       gradientTransform="matrix(0.01400056,0,0,0.01400056,0,2464.9986)">
      <stop
         offset=".09"
         stop-color="#fa8f21"
         id="stop2" />
      <stop
         offset=".78"
         stop-color="#d82d7e"
         id="stop4" />
    </radialGradient>
    <radialGradient
       id="1"
       cx="1516.14"
       cy="2623.8101"
       r="2572.1201"
       gradientUnits="userSpaceOnUse"
       gradientTransform="matrix(0.01400056,0,0,0.01400056,0,2464.9986)">
      <stop
         offset=".64"
         stop-color="#8c3aaa"
         stop-opacity="0"
         id="stop7" />
      <stop
         offset="1"
         stop-color="#8c3aaa"
         id="stop9" />
    </radialGradient>
    <linearGradient
       inkscape:collect="always"
       xlink:href="#0"
       id="linearGradient835"
       x1="-0.082759857"
       y1="17.58416"
       x2="34.91724"
       y2="17.58416"
       gradientUnits="userSpaceOnUse"
       gradientTransform="translate(0.16551907)" />
  </defs>
  <circle
     id="path31"
     cx="17.58276"
     cy="17.58416"
     style="fill:url(#linearGradient835);fill-opacity:1;stroke-width:1.06630182"
     r="17.5" />
  <g
     id="g29"
     transform="matrix(0.5980412,0,0,0.5980412,7.034279,-1467.1362)"
     style="fill:#ffffff">
    <path
       inkscape:connector-curvature="0"
       style="fill:#ffffff;stroke-width:0.01400056"
       id="path14"
       d="m 11.668067,2482.4993 c 0,-3.2217 2.610964,-5.834 5.832633,-5.834 3.221669,0 5.834033,2.6123 5.834033,5.834 0,3.2217 -2.612364,5.834 -5.834033,5.834 -3.221669,0 -5.832633,-2.6123 -5.832633,-5.834 m -3.1537664,0 c 0,4.9632 4.0232014,8.9864 8.9863994,8.9864 4.963199,0 8.986399,-4.0232 8.986399,-8.9864 0,-4.9632 -4.0232,-8.9864 -8.986399,-8.9864 -4.963198,0 -8.9863994,4.0232 -8.9863994,8.9864 m 16.2284694,-9.3427 a 2.100084,2.100084 0 1 0 2.100924,-2.0993 h -8e-4 a 2.101064,2.101064 0 0 0 -2.100084,2.0993 m -14.312353,23.5879 c -1.706248,-0.078 -2.6336451,-0.362 -3.2499498,-0.6021 -0.8170727,-0.3181 -1.400056,-0.6969 -2.0130005,-1.309 -0.6129445,-0.6121 -0.9923597,-1.1946 -1.3090524,-2.0116 -0.2402496,-0.616 -0.5244609,-1.5437 -0.602024,-3.25 -0.084843,-1.8447 -0.1017841,-2.3988 -0.1017841,-7.0724 0,-4.6735 0.018341,-5.2261 0.1017841,-7.0723 0.077703,-1.7063 0.3640145,-2.6321 0.602024,-3.25 0.3180928,-0.8171 0.6969479,-1.4 1.3090524,-2.013 0.6121045,-0.6129 1.1945278,-0.9923 2.0130005,-1.309 0.6160247,-0.2403 1.5437018,-0.5245 3.2499498,-0.6021 1.844714,-0.085 2.398856,-0.1018 7.070283,-0.1018 4.671427,0 5.226129,0.018 7.072383,0.1018 1.706248,0.078 2.632105,0.364 3.24995,0.6021 0.817073,0.3167 1.400056,0.6969 2.013,1.309 0.612945,0.6121 0.99096,1.1959 1.309053,2.013 0.240249,0.616 0.524461,1.5437 0.602024,3.25 0.08484,1.8462 0.101784,2.3988 0.101784,7.0723 0,4.6736 -0.01694,5.2262 -0.101784,7.0724 -0.0777,1.7063 -0.363315,2.6337 -0.602024,3.25 -0.318093,0.817 -0.696948,1.4 -1.309053,2.0116 -0.612104,0.6115 -1.195927,0.9909 -2.013,1.309 -0.616025,0.2403 -1.543702,0.5245 -3.24995,0.6021 -1.844714,0.085 -2.398856,0.1017 -7.072383,0.1017 -4.673527,0 -5.226129,-0.017 -7.070283,-0.1017 m -0.144906,-31.6399 c -1.8630541,0.085 -3.136125,0.3802 -4.2479095,0.8129 -1.1514061,0.4467 -2.126125,1.0461 -3.100144,2.0186 -0.974019,0.9724 -1.5718429,1.9487 -2.01860075,3.1001 -0.4326173,1.1125 -0.72802912,2.3849 -0.81287251,4.2479 C 0.01974079,2477.1501 0,2477.7467 0,2482.4993 c 0,4.7526 0.01974079,5.3492 0.10598424,7.2152 0.0848434,1.8632 0.38025521,3.1354 0.81287251,4.2479 0.44675785,1.1507 1.04472175,2.1281 2.01860075,3.1001 0.973879,0.9721 1.9487379,1.5706 3.100144,2.0186 1.1138846,0.4327 2.3848554,0.7281 4.2479095,0.8129 1.866975,0.085 2.462559,0.106 7.215189,0.106 4.75263,0 5.349194,-0.02 7.215189,-0.106 1.863194,-0.085 3.135425,-0.3802 4.24791,-0.8129 1.150706,-0.448 2.126125,-1.0461 3.100144,-2.0186 0.974019,-0.9724 1.570582,-1.9494 2.0186,-3.1001 0.432618,-1.1125 0.729429,-2.3849 0.812873,-4.2479 0.08484,-1.8674 0.104584,-2.4626 0.104584,-7.2152 0,-4.7526 -0.01974,-5.3492 -0.104584,-7.2152 -0.08484,-1.8632 -0.380255,-3.1361 -0.812873,-4.2479 -0.448018,-1.1507 -1.046122,-2.1261 -2.0186,-3.1001 -0.972479,-0.9741 -1.949438,-1.5719 -3.098744,-2.0186 -1.113885,-0.4327 -2.386256,-0.7295 -4.24791,-0.8129 -1.865995,-0.085 -2.462559,-0.106 -7.215189,-0.106 -4.75263,0 -5.349614,0.02 -7.216589,0.106" />
    <path
       inkscape:connector-curvature="0"
       style="fill:#ffffff;stroke-width:0.01400056"
       id="path16"
       d="m 11.668067,2482.4993 c 0,-3.2217 2.610964,-5.834 5.832633,-5.834 3.221669,0 5.834033,2.6123 5.834033,5.834 0,3.2217 -2.612364,5.834 -5.834033,5.834 -3.221669,0 -5.832633,-2.6123 -5.832633,-5.834 m -3.1537664,0 c 0,4.9632 4.0232014,8.9864 8.9863994,8.9864 4.963199,0 8.986399,-4.0232 8.986399,-8.9864 0,-4.9632 -4.0232,-8.9864 -8.986399,-8.9864 -4.963198,0 -8.9863994,4.0232 -8.9863994,8.9864 m 16.2284694,-9.3427 a 2.100084,2.100084 0 1 0 2.100924,-2.0993 h -8.4e-4 a 2.101064,2.101064 0 0 0 -2.100084,2.0993 m -14.312353,23.5878 c -1.706248,-0.078 -2.6336451,-0.3619 -3.2499498,-0.602 -0.8170727,-0.3181 -1.400056,-0.6969 -2.0130005,-1.309 -0.6129445,-0.6121 -0.9923597,-1.1946 -1.3090524,-2.0116 -0.2402496,-0.6161 -0.5244609,-1.5437 -0.602024,-3.25 -0.084843,-1.8447 -0.1017841,-2.3988 -0.1017841,-7.0724 0,-4.6735 0.018341,-5.2261 0.1017841,-7.0723 0.077703,-1.7063 0.3640145,-2.6321 0.602024,-3.25 0.3180928,-0.8171 0.6969479,-1.4 1.3090524,-2.013 0.6121045,-0.6129 1.1945278,-0.9924 2.0130005,-1.309 0.6160247,-0.2403 1.5437018,-0.5245 3.2499498,-0.6021 1.844714,-0.085 2.398856,-0.1018 7.070283,-0.1018 4.671427,0 5.226129,0.018 7.072383,0.1018 1.706248,0.078 2.632105,0.364 3.24995,0.6021 0.817073,0.3166 1.400056,0.6969 2.013,1.309 0.612945,0.6121 0.99096,1.1959 1.309053,2.013 0.240249,0.616 0.524461,1.5437 0.602024,3.25 0.08484,1.8462 0.101784,2.3988 0.101784,7.0723 0,4.6736 -0.01694,5.2262 -0.101784,7.0724 -0.0777,1.7063 -0.363315,2.6337 -0.602024,3.25 -0.318093,0.817 -0.696948,1.4 -1.309053,2.0116 -0.612104,0.6115 -1.195927,0.9909 -2.013,1.309 -0.616025,0.2403 -1.543702,0.5245 -3.24995,0.602 -1.844714,0.085 -2.398856,0.1018 -7.072383,0.1018 -4.673527,0 -5.226129,-0.017 -7.070283,-0.1018 m -0.144906,-31.6398 c -1.8630541,0.085 -3.136125,0.3802 -4.2479095,0.8129 -1.1514061,0.4467 -2.126125,1.0461 -3.100144,2.0186 -0.974019,0.9724 -1.5718429,1.9487 -2.01860075,3.1001 -0.4326173,1.1125 -0.72802912,2.3849 -0.81287251,4.2479 C 0.01974079,2477.1501 0,2477.7467 0,2482.4993 c 0,4.7526 0.01974079,5.3492 0.10598424,7.2152 0.0848434,1.8632 0.38025521,3.1354 0.81287251,4.2479 0.44675785,1.1507 1.04472175,2.1281 2.01860075,3.1001 0.973879,0.9721 1.9487379,1.5706 3.100144,2.0186 1.1138846,0.4327 2.3848554,0.7281 4.2479095,0.8129 1.866975,0.085 2.462559,0.106 7.215189,0.106 4.75263,0 5.349194,-0.02 7.215189,-0.106 1.863194,-0.085 3.135425,-0.3802 4.24791,-0.8129 1.150706,-0.448 2.126125,-1.0461 3.100144,-2.0186 0.974019,-0.9724 1.570582,-1.9494 2.0186,-3.1001 0.432618,-1.1125 0.729429,-2.3849 0.812873,-4.2479 0.08484,-1.8674 0.104584,-2.4626 0.104584,-7.2152 0,-4.7526 -0.01974,-5.3492 -0.104584,-7.2152 -0.08484,-1.8632 -0.380255,-3.1361 -0.812873,-4.2479 -0.448018,-1.1507 -1.046122,-2.1261 -2.0186,-3.1001 -0.972479,-0.9741 -1.949438,-1.5719 -3.098744,-2.0186 -1.113885,-0.4327 -2.386256,-0.7295 -4.24791,-0.8129 -1.865995,-0.085 -2.462559,-0.106 -7.215189,-0.106 -4.75263,0 -5.349614,0.02 -7.216589,0.106" />
  </g>
</svg>
