<?xml version="1.0" encoding="UTF-8" standalone="no"?>
<!-- Generator: Adobe Illustrator 19.1.0, SVG Export Plug-In . SVG Version: 6.00 Build 0)  -->

<svg
   xmlns:dc="http://purl.org/dc/elements/1.1/"
   xmlns:cc="http://creativecommons.org/ns#"
   xmlns:rdf="http://www.w3.org/1999/02/22-rdf-syntax-ns#"
   xmlns:svg="http://www.w3.org/2000/svg"
   xmlns="http://www.w3.org/2000/svg"
   xmlns:sodipodi="http://sodipodi.sourceforge.net/DTD/sodipodi-0.dtd"
   xmlns:inkscape="http://www.inkscape.org/namespaces/inkscape"
   version="1.1"
   id="Layer_1"
   x="0px"
   y="0px"
   viewBox="0 0 35 34.999998"
   enable-background="new 0 0 62 34.4"
   xml:space="preserve"
   sodipodi:docname="icon-vkontakte2.svg"
   width="35"
   height="35"
   inkscape:version="0.92.1 r15371"><metadata
     id="metadata9"><rdf:RDF><cc:Work
         rdf:about=""><dc:format>image/svg+xml</dc:format><dc:type
           rdf:resource="http://purl.org/dc/dcmitype/StillImage" /></cc:Work></rdf:RDF></metadata><defs
     id="defs7" /><sodipodi:namedview
     pagecolor="#ffffff"
     bordercolor="#666666"
     borderopacity="1"
     objecttolerance="10"
     gridtolerance="10"
     guidetolerance="10"
     inkscape:pageopacity="0"
     inkscape:pageshadow="2"
     inkscape:window-width="1366"
     inkscape:window-height="706"
     id="namedview5"
     showgrid="false"
     inkscape:zoom="4.6290323"
     inkscape:cx="-9.9372804"
     inkscape:cy="16.551916"
     inkscape:window-x="-8"
     inkscape:window-y="-8"
     inkscape:window-maximized="1"
     inkscape:current-layer="Layer_1" /><g
     id="g822"
     transform="translate(-13.393726,1.2480831)"><circle
       r="17.5"
       style="fill:#4d75a3;fill-opacity:1;stroke-width:0.6517877"
       cy="16.251917"
       cx="30.893726"
       id="path11" /><path
       style="fill:#ffffff;stroke-width:0.42233595"
       inkscape:connector-curvature="0"
       id="path2"
       d="m 29.259492,9.2120729 c 0.435794,0 0.871586,0 1.30738,0 0.174317,0.04092 0.392214,0.04092 0.566531,0.08186 0.435793,0.08186 0.871587,0.122788 1.30738,0.204646 0.392213,0.08186 0.61011,0.327436 0.697269,0.6548711 0.04357,0.204648 0.08716,0.409294 0.08716,0.613941 0,1.391599 -0.04357,2.783199 -0.04357,4.1748 0,0.286505 0.08716,0.532082 0.174317,0.777658 0.217897,0.450223 0.610111,0.573012 1.002325,0.245577 0.348634,-0.245577 0.61011,-0.532083 0.871587,-0.859517 1.176642,-1.391601 2.048229,-2.90599 2.745497,-4.543165 0.217898,-0.532083 0.435794,-0.6548701 1.045904,-0.6548701 1.263801,0 2.484023,0 3.747824,0 0.305055,0 0.566531,0 0.871586,0 0.566532,0.04092 0.784428,0.2865051 0.65369,0.8185881 -0.04357,0.245575 -0.174317,0.532083 -0.305055,0.736729 -0.522953,0.818588 -1.089483,1.596246 -1.656015,2.373906 -0.653689,0.859518 -1.394539,1.678105 -2.048229,2.537623 -0.566531,0.695799 -0.479372,1.146023 0.174317,1.759965 0.522953,0.491152 1.089485,0.941376 1.612436,1.432529 0.915167,0.859517 1.873911,1.678106 2.309705,2.865058 0,0.04092 0,0.08186 0,0.122788 -0.217896,0.450224 -0.61011,0.613941 -1.133063,0.65487 -0.217896,0 -0.435792,0.04092 -0.697269,0.04092 -1.002324,0 -2.048229,0 -3.050554,0.04092 -0.566531,0 -1.133062,-0.08186 -1.568856,-0.409294 -0.610109,-0.450224 -1.133062,-0.941375 -1.656015,-1.432528 -0.435793,-0.368365 -0.784427,-0.818588 -1.220221,-1.146024 -0.697269,-0.532082 -1.35096,-0.368365 -1.612436,0.409293 -0.174317,0.532083 -0.261475,1.105096 -0.348633,1.678107 -0.04357,0.491152 -0.261477,0.818588 -0.828008,0.818588 -0.915167,0.04093 -1.830335,0.08187 -2.701921,-0.04092 -2.135387,-0.245576 -3.965719,-1.146023 -5.534575,-2.578553 -1.30738,-1.186953 -2.353284,-2.619482 -3.31203,-4.052011 -1.176641,-1.964612 -2.353283,-3.970152 -3.312029,-6.098483 0,-0.04092 0,-0.08186 0,-0.122787 0.174317,-0.3274371 0.522952,-0.4092941 0.871587,-0.4092941 1.176642,0 2.353284,0 3.529926,0 0.784429,0 1.045904,0.1227881 1.350959,0.8185881 0.69727,1.555317 1.568856,3.069706 2.701918,4.420377 0.261477,0.327434 0.610112,0.65487 0.958747,0.900446 0.392214,0.286506 0.784427,0.163717 0.958745,-0.286506 0.130737,-0.327435 0.261476,-0.6958 0.261476,-1.023234 0.04357,-0.941377 0.04357,-1.882754 0,-2.82413 -0.04357,-0.859518 -0.261476,-1.514388 -1.481698,-1.719036 -0.04357,0 -0.08716,-0.04092 -0.130737,-0.08186 0.348634,-0.5320811 0.871586,-0.6957991 1.438118,-0.7776581 0.435793,-0.04092 0.915165,-0.08186 1.394538,-0.122787 z" /></g></svg>