<?xml version="1.0" encoding="UTF-8" standalone="no"?>
<!-- Generator: Adobe Illustrator 16.0.0, SVG Export Plug-In . SVG Version: 6.00 Build 0)  -->

<svg
   xmlns:dc="http://purl.org/dc/elements/1.1/"
   xmlns:cc="http://creativecommons.org/ns#"
   xmlns:rdf="http://www.w3.org/1999/02/22-rdf-syntax-ns#"
   xmlns:svg="http://www.w3.org/2000/svg"
   xmlns="http://www.w3.org/2000/svg"
   xmlns:sodipodi="http://sodipodi.sourceforge.net/DTD/sodipodi-0.dtd"
   xmlns:inkscape="http://www.inkscape.org/namespaces/inkscape"
   version="1.1"
   id="Capa_1"
   x="0px"
   y="0px"
   width="34.999996"
   height="34.999996"
   viewBox="0 0 34.999996 34.999996"
   xml:space="preserve"
   sodipodi:docname="icon-git.svg"
   inkscape:version="0.92.1 r15371"><metadata
     id="metadata41"><rdf:RDF><cc:Work
         rdf:about=""><dc:format>image/svg+xml</dc:format><dc:type
           rdf:resource="http://purl.org/dc/dcmitype/StillImage" /><dc:title></dc:title></cc:Work></rdf:RDF></metadata><defs
     id="defs39" /><sodipodi:namedview
     pagecolor="#ffffff"
     bordercolor="#666666"
     borderopacity="1"
     objecttolerance="10"
     gridtolerance="10"
     guidetolerance="10"
     inkscape:pageopacity="0"
     inkscape:pageshadow="2"
     inkscape:window-width="1366"
     inkscape:window-height="706"
     id="namedview37"
     showgrid="false"
     inkscape:zoom="14.75"
     inkscape:cx="39.927152"
     inkscape:cy="15.441236"
     inkscape:window-x="-8"
     inkscape:window-y="-8"
     inkscape:window-maximized="1"
     inkscape:current-layer="Capa_1" /><g
     id="g4"
     transform="scale(0.06835937)"
     style="fill:#ffffff"><path
       d="M 256,0 C 114.615,0 0,114.615 0,256 0,397.385 114.615,512 256,512 397.385,512 512,397.385 512,256 512,114.615 397.385,0 256,0 Z m 152.027,408.027 c -19.76,19.759 -42.756,35.267 -68.354,46.094 -6.502,2.75 -13.105,5.164 -19.801,7.246 V 423 c 0,-20.167 -6.916,-35 -20.75,-44.5 8.668,-0.833 16.625,-2 23.875,-3.5 7.25,-1.5 14.918,-3.667 23,-6.5 8.084,-2.833 15.334,-6.208 21.75,-10.125 6.418,-3.917 12.584,-9 18.5,-15.25 5.918,-6.25 10.875,-13.333 14.875,-21.25 4,-7.917 7.168,-17.417 9.5,-28.5 2.334,-11.083 3.5,-23.292 3.5,-36.625 0,-25.833 -8.416,-47.833 -25.25,-66 7.668,-20 6.834,-41.75 -2.5,-65.25 l -6.25,-0.75 c -4.332,-0.5 -12.125,1.333 -23.375,5.5 -11.25,4.167 -23.875,11 -37.875,20.5 -19.832,-5.5 -40.416,-8.25 -61.749,-8.25 -21.5,0 -42,2.75 -61.5,8.25 -8.833,-6 -17.208,-10.958 -25.125,-14.875 -7.917,-3.917 -14.25,-6.583 -19,-8 -4.75,-1.417 -9.167,-2.292 -13.25,-2.625 -4.083,-0.333 -6.708,-0.417 -7.875,-0.25 -1.167,0.167 -2,0.333 -2.5,0.5 -9.333,23.667 -10.167,45.417 -2.5,65.25 -16.833,18.167 -25.25,40.167 -25.25,66 0,13.333 1.167,25.542 3.5,36.625 2.333,11.083 5.5,20.583 9.5,28.5 4,7.917 8.958,15 14.875,21.25 5.917,6.25 12.083,11.333 18.5,15.25 6.417,3.917 13.667,7.292 21.75,10.125 8.083,2.833 15.75,5 23,6.5 7.25,1.5 15.208,2.667 23.875,3.5 -13.667,9.333 -20.5,24.167 -20.5,44.5 v 39.115 c -7.549,-2.247 -14.99,-4.902 -22.3,-7.994 C 146.726,443.294 123.729,427.786 103.97,408.027 84.212,388.269 68.703,365.271 57.877,339.673 46.679,313.195 41,285.043 41,256 41,226.957 46.679,198.805 57.879,172.325 68.706,146.728 84.214,123.731 103.972,103.972 123.73,84.213 146.728,68.705 172.325,57.879 198.805,46.679 226.957,41 256,41 c 29.043,0 57.195,5.679 83.676,16.879 25.598,10.827 48.594,26.335 68.354,46.093 19.758,19.758 35.266,42.756 46.092,68.353 C 465.32,198.805 471,226.957 471,256 c 0,29.043 -5.68,57.195 -16.879,83.675 -10.826,25.596 -26.336,48.595 -46.094,68.352 z"
       id="path2"
       inkscape:connector-curvature="0"
       style="fill:#ffffff" /></g><g
     id="g6"
     transform="translate(0,-477)" /><g
     id="g8"
     transform="translate(0,-477)" /><g
     id="g10"
     transform="translate(0,-477)" /><g
     id="g12"
     transform="translate(0,-477)" /><g
     id="g14"
     transform="translate(0,-477)" /><g
     id="g16"
     transform="translate(0,-477)" /><g
     id="g18"
     transform="translate(0,-477)" /><g
     id="g20"
     transform="translate(0,-477)" /><g
     id="g22"
     transform="translate(0,-477)" /><g
     id="g24"
     transform="translate(0,-477)" /><g
     id="g26"
     transform="translate(0,-477)" /><g
     id="g28"
     transform="translate(0,-477)" /><g
     id="g30"
     transform="translate(0,-477)" /><g
     id="g32"
     transform="translate(0,-477)" /><g
     id="g34"
     transform="translate(0,-477)" /><path
     style="fill:#000000;stroke-width:0.06779661"
     d="M 12.55088,31.306874 C 12.196643,31.179517 11.510202,30.878609 11.025457,30.638189 9.4666638,29.865074 8.3777229,29.078651 7.1252301,27.821481 5.4624009,26.152442 4.3367988,24.335394 3.6095342,22.146127 3.0617915,20.49727 2.8574744,19.227582 2.8565213,17.466675 2.8538328,12.499748 5.3361404,7.9529295 9.5678294,5.1736384 11.251815,4.0676294 13.437499,3.2592956 15.519313,2.9725945 c 0.88414,-0.121761 2.92342,-0.140915 3.721577,-0.034955 2.766597,0.3672822 5.319815,1.4385599 7.411685,3.1097899 0.675141,0.5393814 1.725998,1.5962056 2.298279,2.3113311 2.708483,3.3845305 3.765935,7.7621205 2.915102,12.0677965 -0.296382,1.499855 -1.080061,3.474534 -1.904747,4.799494 -1.40553,2.25816 -3.458669,4.133555 -5.860461,5.353112 -0.645904,0.32797 -2.011083,0.898242 -2.15031,0.898242 -0.01655,0 -0.0444,-0.770339 -0.06189,-1.711865 -0.0341,-1.835503 -0.07497,-2.103969 -0.425972,-2.79771 -0.0996,-0.196846 -0.330215,-0.504793 -0.51249,-0.684327 -0.182275,-0.179534 -0.331408,-0.350453 -0.331408,-0.379821 0,-0.02937 0.103409,-0.0534 0.229799,-0.0534 0.312428,0 1.230795,-0.174492 1.988839,-0.377885 1.539883,-0.413171 2.691706,-1.061901 3.589894,-2.021907 1.092963,-1.168184 1.645713,-2.581667 1.858587,-4.75275 0.2044,-2.084648 -0.208638,-3.779112 -1.261982,-5.177221 l -0.376142,-0.499255 0.149915,-0.585491 C 27.04796,11.45795 26.99778,10.321053 26.654074,9.1842308 26.453823,8.5218938 26.461206,8.5282521 25.892336,8.5282521 c -0.807355,0 -2.120176,0.5043905 -3.44673,1.3242461 L 21.787021,10.259526 21.219798,10.127697 C 18.965245,9.6037117 16.369782,9.5898256 14.140466,10.08982 L 13.37333,10.261875 12.895182,9.9553904 C 12.274389,9.5574719 11.052839,8.9460574 10.520007,8.7665593 10.00957,8.5946055 9.1057594,8.4594997 8.8669111,8.5194468 8.7185598,8.5566805 8.6670282,8.6430559 8.5276087,9.0881729 8.4371966,9.3768266 8.3252273,9.8289327 8.2787879,10.092853 c -0.1168341,0.663982 -0.056374,1.974573 0.115516,2.504042 L 8.526638,13.00452 8.1649666,13.478251 c -1.0566776,1.384075 -1.4651875,2.937748 -1.3110476,4.986265 0.2055295,2.731485 1.0549184,4.524297 2.7431701,5.790035 0.9563319,0.716993 2.9326309,1.411304 4.4622659,1.567677 0.251695,0.02573 0.457627,0.0625 0.457627,0.08172 0,0.01921 -0.154193,0.197971 -0.342652,0.397238 -0.188459,0.199267 -0.415834,0.522554 -0.50528,0.718416 -0.330199,0.723048 -0.372407,1.04549 -0.372407,2.844931 0,0.924369 -0.02288,1.679148 -0.05085,1.677286 -0.02797,-0.0019 -0.340678,-0.107586 -0.694916,-0.234942 z"
     id="path43"
     inkscape:connector-curvature="0" /></svg>