<?xml version="1.0" encoding="UTF-8" standalone="no"?>
<svg
   xmlns:dc="http://purl.org/dc/elements/1.1/"
   xmlns:cc="http://creativecommons.org/ns#"
   xmlns:rdf="http://www.w3.org/1999/02/22-rdf-syntax-ns#"
   xmlns:svg="http://www.w3.org/2000/svg"
   xmlns="http://www.w3.org/2000/svg"
   xmlns:sodipodi="http://sodipodi.sourceforge.net/DTD/sodipodi-0.dtd"
   xmlns:inkscape="http://www.inkscape.org/namespaces/inkscape"
   height="39.30941"
   width="78.618813"
   version="1.1"
   id="svg4"
   sodipodi:docname="Octicons-triangle-down.svg"
   inkscape:version="0.92.1 r15371">
  <metadata
     id="metadata10">
    <rdf:RDF>
      <cc:Work
         rdf:about="">
        <dc:format>image/svg+xml</dc:format>
        <dc:type
           rdf:resource="http://purl.org/dc/dcmitype/StillImage" />
      </cc:Work>
    </rdf:RDF>
  </metadata>
  <defs
     id="defs8" />
  <sodipodi:namedview
     pagecolor="#ffffff"
     bordercolor="#666666"
     borderopacity="1"
     objecttolerance="10"
     gridtolerance="10"
     guidetolerance="10"
     inkscape:pageopacity="0"
     inkscape:pageshadow="2"
     inkscape:window-width="1366"
     inkscape:window-height="706"
     id="namedview6"
     showgrid="false"
     inkscape:zoom="2.6074563"
     inkscape:cx="133.76929"
     inkscape:cy="-0.076698966"
     inkscape:window-x="-8"
     inkscape:window-y="-8"
     inkscape:window-maximized="1"
     inkscape:current-layer="svg4" />
  <path
     style="fill:#06bc9b;fill-opacity:1;stroke:none;stroke-width:0.38351554"
     d="M 19.654704,19.654704 39.309408,0 58.964111,19.654704 78.618814,39.309412 H 39.309408 0 Z"
     id="path818"
     inkscape:connector-curvature="0" />
  <g
     id="g4"
     transform="matrix(0.01607633,0,0,0.01434351,31.463766,12.65472)"
     style="fill:#ffffff">
    <path
       d="m 572.875,51.326 v 0 c -12.8,-12.8 -28.6,-22.6 -45.6,-28.5 -4.9,-1.7 -10,-3.1 -15.101,-4.2 -22.5,-4.8 -46.6,-2.6 -68,5.8 -15.3,6 -29.3,15.2 -41,26.9 v 0 l -368,368 c -46.899,46.899 -46.899,122.8 0,169.699 46.9,46.9 122.801,46.9 169.7,0 l 163.1,-163.1 v 414 c 0,66.3 53.7,120 120,120 66.301,0 120,-53.7 120,-120 v -414 l 163.101,163.1 c 23.399,23.4 54.1,35.101 84.899,35.101 30.801,0 61.4,-11.7 84.9,-35.101 46.9,-46.899 46.9,-122.8 0,-169.699 z"
       id="path2"
       inkscape:connector-curvature="0"
       style="fill:#ffffff" />
  </g>
</svg>
